# xmcd database file
#
# Track frame offsets:
# 150
# 32996
# 45527
# 75230
# 95960
# 113634
# 133046
# 148798
# 162970
#
# Disc length: 2486 seconds
#
# Revision: 0
# Processed by: cddbd v1.5.2PL0 Copyright (c) Steve Scherf et al.
# Submitted via: CD-Runner 2007.01
#
DISCID=7509b409
DTITLE=Paul Butterfield - 1966 Unicorn Coffee House
DYEAR=1900
DGENRE=Blues
TTITLE0=Coming Home Baby
TTITLE1=Serves You Right To Suffer
TTITLE2=I Got A Mind To Give Up Living
TTITLE3=Walking By Myself
TTITLE4=If You See My Baby
TTITLE5=World Is In An Uproar
TTITLE6=In The Midnight Hour
TTITLE7=You're So Fine
TTITLE8=Got My Mojo Working
EXTD=
EXTT0=09
EXTT1=10
EXTT2=11
EXTT3=12
EXTT4=13
EXTT5=14
EXTT6=15
EXTT7=16
EXTT8=17
PLAYORDER=
